<?xml version="1.0" standalone="no"?>
<!DOCTYPE svg PUBLIC "-//W3C//DTD SVG 20010904//EN"
 "http://www.w3.org/TR/2001/REC-SVG-20010904/DTD/svg10.dtd">
<svg version="1.0" xmlns="http://www.w3.org/2000/svg"
 width="2560.000000pt" height="1440.000000pt" viewBox="0 0 2560.000000 1440.000000"
 preserveAspectRatio="xMidYMid meet">

<g transform="translate(0.000000,1440.000000) scale(0.100000,-0.100000)"
fill="#000000" stroke="none">
<path d="M0 7200 l0 -7200 12800 0 12800 0 0 7200 0 7200 -12800 0 -12800 0 0
-7200z m10330 541 l45 -7 -32 -7 c-37 -7 -40 -21 -18 -64 8 -15 17 -45 20 -66
7 -47 23 -54 75 -33 22 9 56 16 75 16 l35 0 -30 -61 c-19 -37 -29 -68 -25 -80
5 -14 2 -19 -13 -19 -15 0 -19 5 -15 19 3 11 -3 24 -14 32 -10 8 -18 20 -19
27 -1 6 -2 17 -2 24 -1 7 -23 -8 -49 -34 -29 -27 -61 -48 -80 -51 -28 -6 -32
-3 -42 23 -8 26 -15 30 -46 30 -28 0 -38 -5 -47 -24 -16 -37 -4 -56 35 -56 31
0 35 -3 35 -27 0 -19 15 -41 55 -80 53 -51 55 -54 46 -90 -11 -48 -11 -65 0
-82 7 -11 13 -10 35 5 14 11 26 27 26 36 0 9 4 19 8 22 15 9 122 -112 145
-162 43 -94 19 -249 -47 -311 -20 -19 -24 -20 -36 -6 -17 21 -78 19 -175 -5
-92 -23 -111 -24 -120 -9 -19 30 72 69 163 69 65 0 82 9 82 42 0 28 -1 29 -42
26 -40 -3 -44 -1 -54 27 -16 45 -45 44 -97 -4 -24 -23 -47 -41 -51 -41 -11 0
-6 77 7 88 6 6 30 13 52 17 47 9 65 21 65 45 0 21 -19 30 -63 30 -36 0 -47 6
-63 35 -11 20 -69 43 -80 32 -4 -3 -2 -20 4 -36 6 -17 8 -31 5 -31 -9 0 -164
138 -206 184 -21 23 -50 61 -65 85 -24 41 -26 52 -23 149 2 124 12 153 33 102
8 -19 25 -68 37 -109 l23 -75 -22 -39 c-21 -36 -21 -40 -6 -55 16 -16 18 -16
27 1 16 28 25 20 49 -38 12 -31 26 -58 31 -60 4 -3 12 11 18 31 8 27 7 41 -4
58 -7 11 -20 49 -29 84 -14 56 -14 67 -1 99 8 19 15 46 15 59 0 30 -27 32 -32
2 -4 -30 -24 -34 -31 -6 -3 13 -15 49 -27 80 -19 48 -20 60 -10 73 20 24 101
76 110 70 4 -3 13 2 20 10 26 32 230 54 340 36z m-3896 -27 c3 -9 6 -33 6 -55
0 -37 -3 -41 -42 -59 -24 -11 -53 -20 -64 -20 -12 0 -25 -8 -28 -17 -12 -30
10 -36 60 -14 82 37 84 33 84 -144 0 -141 -9 -195 -25 -146 -6 19 -75 68 -75
53 0 -16 90 -132 114 -148 47 -30 49 -17 43 205 -5 179 -4 208 10 223 15 17
14 20 -10 42 -15 14 -27 31 -27 38 0 7 -3 23 -6 36 l-6 22 151 0 151 0 -1
-150 c-1 -83 -5 -153 -10 -155 -4 -3 -23 2 -43 10 -52 22 -127 20 -153 -4 -40
-37 -38 -159 2 -175 8 -3 43 0 77 6 52 9 69 17 98 47 25 26 53 42 95 54 34 10
63 13 68 8 5 -5 14 -46 19 -92 7 -58 16 -89 29 -101 10 -10 20 -18 22 -18 2 0
7 50 10 112 5 73 11 114 19 120 7 4 34 8 60 8 54 0 98 14 116 37 10 14 12 10
12 -28 0 -108 -54 -211 -146 -280 -29 -23 -54 -45 -54 -50 0 -20 -56 -37 -106
-32 -69 7 -154 -20 -154 -49 0 -16 6 -19 38 -18 77 4 79 -9 6 -40 -74 -32 -51
-65 26 -39 63 23 62 -39 -2 -72 -65 -33 -67 -76 -2 -45 20 9 39 15 41 12 6 -5
-108 -144 -119 -145 -6 -1 -37 76 -92 229 -31 88 -62 143 -78 138 -6 -2 -16
-19 -22 -38 -9 -29 -16 -35 -41 -37 -27 -2 -28 -2 -8 7 27 11 49 83 36 120 -7
20 -14 24 -36 22 -16 -2 -50 2 -77 9 -44 11 -52 11 -68 -4 -10 -9 -23 -17 -28
-17 -15 0 -5 -133 12 -146 10 -8 12 -25 7 -61 -4 -35 0 -66 11 -98 18 -54 15
-65 -20 -65 -21 0 -24 -5 -24 -34 0 -40 17 -50 60 -35 40 14 62 5 58 -23 -3
-21 -9 -23 -73 -26 -38 -2 -80 0 -94 3 -24 6 -24 7 -17 92 5 63 12 92 26 110
11 14 20 34 20 44 0 18 -6 19 -70 13 -60 -6 -70 -5 -70 9 0 11 14 18 48 23 67
9 85 20 71 42 -8 13 -7 27 5 55 14 36 14 39 -4 57 -14 14 -34 20 -64 20 l-45
0 6 128 c5 121 7 128 32 149 14 13 44 28 66 34 56 17 71 32 50 49 -13 11 -25
11 -58 3 -23 -6 -45 -9 -49 -7 -18 11 -6 36 28 56 37 22 35 34 -6 40 -37 5
-30 20 18 43 45 21 53 38 25 54 -15 8 -14 12 15 28 33 19 40 50 9 45 -19 -3
-23 13 -5 24 6 4 39 10 72 14 34 4 66 8 72 9 7 0 15 -6 18 -15z m461 4 c4 -3
8 -65 6 -89 -1 -9 -11 -19 -23 -22 -13 -2 -31 -8 -40 -12 -16 -6 -18 0 -18 65
l0 73 36 -6 c20 -3 38 -7 39 -9z m1705 -17 c0 -38 -51 -217 -78 -275 -16 -34
-57 -92 -91 -130 -33 -38 -61 -78 -61 -88 0 -18 5 -19 53 -13 69 10 87 20 87
52 0 15 14 51 32 80 l32 53 26 -25 c14 -13 95 -60 180 -103 l155 -79 44 -114
c43 -112 44 -117 52 -279 7 -149 6 -166 -9 -178 -26 -21 -231 -12 -266 12 -36
23 -30 36 30 67 33 17 49 32 49 45 0 16 -7 19 -47 17 -41 -1 -48 2 -48 18 0
10 9 23 20 29 25 14 26 40 1 40 -10 0 -24 7 -31 15 -10 13 -10 19 4 33 11 13
16 37 16 76 0 31 7 72 14 91 8 19 12 35 8 36 -22 4 -64 -4 -115 -22 -31 -10
-67 -19 -78 -19 -19 0 -21 -4 -15 -37 3 -21 9 -54 12 -73 l6 -35 -139 0 c-173
0 -175 -1 -243 -133 -29 -56 -48 -84 -45 -67 3 17 10 57 15 89 6 32 15 67 21
78 22 41 -19 50 -90 18 -57 -26 -71 -25 -71 4 0 27 -26 54 -39 40 -5 -5 -11
-52 -14 -105 -5 -96 1 -123 27 -113 7 3 25 -9 41 -26 l29 -30 -21 -28 c-19
-25 -25 -27 -107 -30 l-86 -3 0 53 c0 62 14 92 30 68 5 -8 10 -28 10 -43 0
-32 16 -67 30 -67 21 0 9 65 -22 118 l-31 55 36 30 c37 29 48 57 24 57 -8 0
-22 -9 -32 -20 -22 -24 -35 -18 -35 17 0 16 7 27 20 30 25 7 25 18 1 52 -13
18 -17 32 -11 42 8 12 11 11 23 -5 20 -27 47 -14 47 22 0 16 -7 35 -15 42 -12
10 -10 20 15 70 34 67 43 76 60 55 14 -17 76 -36 94 -29 16 6 34 116 51 307 2
31 18 75 45 125 78 144 92 152 268 152 122 0 132 -1 132 -19z m97 -1 c18 -10
40 -31 49 -45 20 -30 146 -366 140 -372 -10 -11 -238 129 -267 163 -9 12 -6
33 16 105 20 65 26 101 21 130 -7 45 -3 46 41 19z m5053 4 c0 -8 -18 -69 -41
-134 -23 -67 -39 -130 -37 -147 4 -27 5 -26 26 20 22 48 52 64 52 27 0 -25 5
-25 46 1 19 11 34 19 35 17 0 -2 2 -32 5 -68 l4 -65 -34 40 c-45 51 -53 42
-15 -15 16 -24 27 -50 24 -57 -18 -44 -10 -41 44 16 l61 63 10 -26 c11 -31 13
-142 3 -263 -5 -67 -9 -83 -22 -83 -9 0 -73 12 -144 26 -127 27 -127 27 -113
49 13 20 13 25 -5 44 -23 24 -46 26 -73 6 -11 -8 -22 -15 -25 -15 -10 0 -2
162 10 203 5 20 24 53 40 72 l31 35 -32 47 c-28 42 -31 54 -27 101 6 79 52
119 145 121 23 1 32 -3 32 -15z m142 -6 c54 -27 62 -139 15 -202 -15 -19 -27
-42 -27 -51 0 -9 -4 -13 -10 -10 -16 10 -11 48 10 80 24 36 25 45 5 45 -8 0
-15 5 -15 10 0 6 5 10 10 10 6 0 10 7 10 15 0 20 -16 19 -69 -5 -54 -25 -61
-25 -61 -1 0 24 19 39 76 59 26 10 49 23 52 30 6 19 -27 26 -54 12 -28 -16
-42 -7 -24 15 12 15 45 12 82 -7z m-1959 5 c-13 -2 -35 -2 -50 0 -16 2 -5 4
22 4 28 0 40 -2 28 -4z m-1498 -19 c-60 -16 -73 -17 -59 -5 12 12 41 19 79 19
23 0 19 -3 -20 -14z m1389 -6 c3 -13 9 -76 12 -140 7 -115 6 -118 -19 -155
-30 -45 -34 -73 -43 -304 l-7 -175 28 -22 28 -22 -7 -141 c-3 -78 -9 -145 -12
-150 -3 -5 -68 -9 -145 -9 l-140 0 3 32 c2 26 12 37 53 61 48 28 65 43 65 60
0 15 -36 6 -75 -18 -51 -31 -55 -31 -55 5 0 30 15 45 83 79 44 23 49 46 8 37
-17 -3 -45 -9 -62 -12 -48 -10 -33 16 27 47 32 17 50 33 52 47 4 26 -13 28
-63 8 -42 -18 -46 -13 -56 63 -4 29 -12 58 -18 64 -8 8 -11 -47 -11 -189 0
-109 -3 -216 -6 -236 -8 -46 -29 -50 -68 -13 -25 23 -26 28 -19 77 4 29 7 103
5 163 -3 149 -3 347 0 351 2 1 48 -8 103 -22 115 -28 181 -30 232 -9 34 14 35
16 19 34 -14 15 -36 19 -124 23 -137 6 -182 24 -182 74 0 31 5 36 60 64 64 32
71 43 40 60 -15 8 -27 7 -49 -5 -45 -23 -61 -19 -61 13 0 32 21 46 85 58 26 5
35 11 33 23 -4 17 -11 17 -95 6 -63 -9 -73 7 -15 25 52 17 55 22 60 92 2 35 9
66 15 70 7 4 80 8 163 8 149 0 152 0 158 -22z m5266 -3 c39 -20 74 -63 125
-155 26 -47 50 -88 52 -93 2 -4 -9 -15 -26 -25 -37 -20 -43 -47 -8 -36 51 17
59 11 109 -75 26 -46 48 -86 48 -87 0 -13 -26 1 -50 26 l-27 29 -13 -27 c-22
-46 -29 -94 -18 -115 9 -17 12 -14 31 27 l22 45 55 -34 c57 -37 107 -55 151
-55 23 0 27 5 32 41 3 23 2 51 -2 63 -7 18 -10 14 -16 -21 -8 -48 -17 -51 -73
-26 -27 12 -32 17 -19 20 9 3 18 9 18 14 5 33 3 72 -3 76 -16 9 -7 56 23 114
28 57 32 60 48 45 9 -8 25 -38 35 -66 21 -59 46 -67 46 -15 0 20 7 52 15 72 8
19 15 47 14 62 0 21 -5 17 -25 -28 l-25 -53 -18 23 c-38 50 -43 67 -26 98 32
62 9 115 -40 93 -21 -10 -25 -9 -25 4 0 55 54 79 177 79 77 0 96 -3 120 -21
54 -40 55 -55 28 -486 -13 -216 -27 -424 -31 -463 -13 -142 -40 -158 -253
-153 -133 3 -149 5 -178 26 -22 16 -34 34 -39 59 -9 45 7 58 88 75 32 7 58 15
58 20 0 19 -39 25 -99 15 -58 -10 -64 -10 -77 8 -21 28 -17 53 17 113 20 36
29 64 27 85 -3 29 -6 32 -35 31 -34 -2 -143 -48 -143 -61 0 -4 4 -14 9 -21 7
-11 16 -10 49 7 72 37 75 27 24 -68 l-28 -50 -55 92 c-29 50 -69 111 -86 135
-23 29 -33 53 -33 78 0 36 -1 36 -31 30 l-32 -6 6 50 c3 27 2 52 -3 55 -4 3
-61 -16 -125 -41 -111 -43 -118 -45 -136 -28 -24 22 -24 7 1 -56 l20 -51 -25
-9 c-76 -29 -75 -30 -75 49 0 82 9 96 98 144 l49 27 11 -25 c15 -33 33 -31 98
6 35 20 61 28 74 24 18 -6 20 -2 19 42 -1 26 -3 40 -6 30 -5 -19 -59 -51 -73
-42 -5 3 6 28 25 56 35 54 36 79 2 79 -11 0 -29 7 -39 17 -17 15 -18 15 -18
-3 0 -42 -15 -49 -59 -30 -22 10 -47 16 -55 13 -9 -4 -16 -3 -16 2 0 11 88 53
115 55 30 1 66 69 47 88 -9 9 -12 8 -12 -4 0 -19 -49 -57 -70 -55 -26 2 -150
-63 -150 -78 0 -8 9 -15 20 -15 26 0 25 -12 -1 -36 -17 -16 -22 -16 -30 -4
-11 16 -7 199 5 218 4 8 18 -1 38 -24 25 -28 36 -34 55 -29 16 4 25 1 30 -10
4 -13 12 -8 37 21 17 21 32 46 32 56 1 9 9 29 18 43 16 25 19 25 99 19 45 -4
93 -12 107 -19z m1620 21 c0 -4 -138 -96 -144 -96 -2 0 -7 11 -10 25 -8 33
-24 32 -32 -2 -3 -16 -14 -60 -24 -100 -14 -56 -15 -76 -6 -88 10 -14 13 -9
23 28 9 33 25 56 59 86 26 22 50 41 54 41 13 0 18 -23 25 -109 6 -68 5 -81 -7
-81 -8 0 -20 11 -26 25 -15 32 -24 32 -45 -3 -15 -27 -19 -29 -64 -22 -62 10
-83 36 -83 105 0 29 -2 60 -5 68 -4 8 15 38 42 70 l47 57 98 0 c54 0 98 -2 98
-4z m340 -16 c0 -92 -50 -180 -102 -180 -43 0 -35 -34 10 -38 31 -3 32 -5 26
-37 -5 -27 -2 -35 14 -44 32 -17 35 -46 11 -120 -19 -58 -21 -75 -11 -96 16
-34 35 -32 70 10 l29 36 17 -25 c18 -28 23 -156 7 -156 -6 0 -7 -36 -4 -87 l6
-88 -47 -22 c-62 -30 -64 -58 -3 -50 l42 6 -6 -72 c-9 -113 -33 -141 -131
-153 l-56 -7 -49 47 -48 46 43 36 c40 34 56 74 30 74 -7 0 -32 -19 -55 -42
-41 -40 -43 -41 -43 -18 0 45 -12 70 -31 70 -27 0 -37 31 -15 44 44 26 59 43
53 60 -6 15 -9 15 -36 1 -37 -19 -41 -19 -41 0 0 9 11 21 25 27 34 15 28 44
-8 41 -20 -1 -27 3 -27 17 0 10 9 22 20 25 22 7 26 20 9 30 -7 5 -8 25 -4 56
5 33 3 49 -4 49 -8 0 -11 50 -10 158 l1 157 33 -71 c43 -92 56 -101 48 -32 -9
81 -27 118 -57 118 -15 0 -26 3 -26 8 0 4 -9 44 -19 89 l-19 82 24 16 c22 14
24 14 34 -5 11 -20 12 -20 41 7 16 15 29 34 29 40 0 10 30 13 115 13 107 0
115 -1 115 -20z m240 -4 c0 -35 21 -48 69 -40 22 4 41 4 41 0 0 -12 -33 -60
-63 -93 l-30 -32 38 -42 c36 -40 37 -43 20 -56 -12 -8 -46 -13 -91 -13 -57 0
-77 -4 -98 -21 l-26 -20 6 33 c3 18 17 55 30 81 13 27 24 60 24 73 0 13 7 39
17 58 19 40 7 66 -31 66 -17 0 -28 -14 -51 -62 -22 -46 -36 -64 -52 -66 -29
-4 -30 16 -5 98 l17 60 93 0 c90 0 92 0 92 -24z m-12210 -32 c0 -2 -17 -4 -39
-4 -35 0 -38 2 -34 24 l5 24 34 -20 c19 -11 34 -22 34 -24z m8578 -6 c-29
-158 -87 -278 -175 -364 -57 -54 -59 -89 -7 -97 45 -8 74 7 74 36 0 12 21 55
47 94 l47 73 24 -23 c13 -12 83 -53 155 -92 l131 -70 72 -195 c67 -182 72
-202 77 -298 4 -84 2 -105 -10 -118 -9 -8 -23 -12 -32 -9 -9 4 -71 9 -138 12
-109 5 -122 8 -127 25 -7 31 2 45 42 63 61 26 67 31 67 51 0 16 -7 19 -47 17
-41 -1 -48 2 -48 18 0 10 9 23 20 29 25 14 26 40 1 40 -10 0 -24 7 -31 15 -10
13 -10 19 4 33 11 13 16 37 16 76 0 31 7 72 14 91 8 19 12 35 8 36 -22 4 -64
-4 -115 -22 -31 -10 -66 -19 -77 -19 -24 0 -24 -3 -5 -103 8 -43 15 -82 15
-87 0 -4 -19 -1 -42 7 -31 11 -75 14 -158 11 -135 -4 -157 -13 -194 -86 -22
-41 -25 -43 -26 -21 0 14 7 48 15 74 8 27 12 52 9 57 -9 14 -47 9 -93 -12 -57
-26 -71 -25 -71 4 0 27 -26 54 -39 40 -5 -5 -11 -52 -14 -105 -5 -96 1 -123
27 -113 7 3 25 -9 41 -26 l29 -30 -30 -43 -30 -42 -77 -3 -77 -3 0 68 c0 75
13 109 30 83 5 -8 10 -25 10 -37 0 -30 17 -73 30 -73 21 0 9 64 -22 118 l-31
55 36 30 c37 29 48 57 24 57 -8 0 -22 -9 -32 -20 -22 -24 -35 -18 -35 17 0 16
7 27 20 30 11 3 20 10 20 15 0 5 -9 21 -20 35 -21 27 -26 58 -12 67 5 3 15 -6
22 -20 8 -13 21 -23 29 -22 25 5 25 54 1 78 l-20 20 21 43 c12 23 29 52 37 65
l15 23 22 -21 c24 -23 79 -42 99 -34 21 8 62 319 45 338 -9 10 31 94 68 144
49 65 71 72 234 72 l146 0 -9 -52z m115 2 c14 -16 35 -56 47 -87 56 -150 89
-243 84 -243 -23 0 -213 125 -220 145 -3 7 6 50 20 95 14 44 26 90 26 101 0
27 14 24 43 -11z m-3633 1 c0 -11 -4 -22 -9 -26 -6 -3 -13 -26 -17 -51 l-7
-46 -23 28 c-20 25 -25 27 -34 14 -5 -8 -10 -22 -10 -31 0 -30 22 -79 36 -79
27 0 14 -19 -21 -30 -19 -6 -41 -18 -49 -25 -10 -11 -26 -12 -57 -7 -43 7 -44
9 -51 52 -3 25 -7 78 -7 118 l-1 72 48 1 c26 0 74 6 107 14 84 19 95 18 95 -4z
m169 -1 c21 -10 52 -31 70 -45 l31 -27 0 -163 c0 -159 -20 -475 -40 -625 -7
-52 -17 -81 -31 -95 -17 -17 -21 -18 -29 -5 -5 8 -10 29 -10 46 0 37 -26 78
-34 54 -3 -8 -7 -31 -8 -50 -3 -31 -7 -35 -34 -38 -16 -2 -42 2 -57 7 l-27 11
0 164 0 164 31 12 c22 10 33 10 42 1 8 -8 2 -20 -23 -46 -29 -30 -32 -37 -20
-45 21 -14 80 -24 88 -15 4 3 9 43 12 88 4 70 8 82 22 79 35 -6 32 37 -7 94
-20 29 -34 58 -30 63 3 6 24 14 46 17 78 13 102 59 43 86 -22 10 -37 8 -102
-15 -89 -31 -92 -32 -92 -13 0 19 36 44 80 56 50 14 85 47 69 66 -9 11 -23 13
-51 9 -44 -8 -46 -5 -16 36 18 23 20 33 11 47 -6 9 -18 16 -26 14 -16 -3 -24
15 -26 61 -1 25 2 27 40 27 22 0 57 -9 78 -20z m-1824 -10 c-22 -10 -53 -18
-70 -18 -25 0 -20 3 25 18 71 24 96 24 45 0z m6295 -12 c0 -16 -3 -19 -11 -11
-6 6 -8 16 -5 22 11 17 16 13 16 -11z m-9642 -35 c20 -29 28 -49 43 -97 8 -28
8 -28 -11 -11 -15 14 -29 16 -60 11 -22 -3 -57 -9 -79 -12 l-39 -6 -4 38 c-6
49 5 72 40 80 15 3 36 9 47 14 33 14 43 11 63 -17z m4302 17 c0 -13 -28 -25
-38 -16 -3 4 0 11 8 16 20 13 30 12 30 0z m8026 -125 c-16 -37 -32 -42 -49
-13 -14 21 -2 61 30 99 l28 33 3 -41 c2 -23 -4 -58 -12 -78z m-12564 57 c10
-36 -3 -80 -26 -86 -45 -12 -56 -7 -56 24 0 53 71 106 82 62z m12182 -90 c-8
-20 -21 -44 -29 -52 -13 -12 -15 -9 -15 27 0 32 5 46 22 57 31 22 40 10 22
-32z m-6563 -65 c21 -62 24 -91 23 -207 0 -120 -3 -143 -27 -214 -25 -71 -75
-171 -82 -164 -2 2 3 109 11 238 7 129 13 273 14 320 0 47 3 96 7 109 5 22 7
22 18 7 7 -9 23 -49 36 -89z m2630 -72 c-5 -37 -12 -70 -15 -73 -3 -3 -17 0
-30 6 l-24 11 35 66 c19 36 37 64 39 62 2 -2 0 -34 -5 -72z m1715 13 c6 -21
-11 -48 -31 -48 -8 0 -16 14 -20 30 -7 34 -22 38 -41 13 -7 -10 -15 -15 -19
-11 -4 4 8 22 27 41 l33 34 22 -20 c13 -11 25 -29 29 -39z m-178 -6 c23 -22
23 -24 7 -43 -33 -35 -45 -24 -44 39 0 31 3 50 6 42 3 -8 17 -25 31 -38z
m-8613 -48 c-3 -19 -12 -34 -20 -34 -26 0 -27 21 -4 66 20 37 25 41 27 23 2
-12 1 -37 -3 -55z m4005 72 c0 -3 -4 -8 -10 -11 -5 -3 -10 -1 -10 4 0 6 5 11
10 11 6 0 10 -2 10 -4z m7060 -73 c0 -27 -3 -34 -11 -26 -7 7 -9 23 -5 37 9
37 16 32 16 -11z m-6945 -35 c4 -13 17 -33 28 -45 11 -13 19 -25 16 -27 -8 -6
-103 -36 -117 -36 -11 0 -13 10 -7 48 9 63 21 82 50 82 16 0 26 -7 30 -22z
m4752 -44 c9 -24 -14 -64 -37 -64 -17 0 -19 4 -14 28 12 48 39 68 51 36z m-87
-31 c0 -5 -5 -15 -10 -23 -8 -12 -10 -11 -10 8 0 12 5 22 10 22 6 0 10 -3 10
-7z m-66 -45 c5 -24 3 -28 -14 -28 -28 0 -38 30 -15 46 22 16 20 17 29 -18z
m211 -55 c-3 -10 -9 -47 -12 -83 -6 -69 -16 -92 -97 -215 -47 -71 -54 -89 -36
-100 20 -12 51 7 76 46 13 21 29 39 35 39 13 0 3 -69 -16 -117 -18 -43 -65
-56 -182 -52 -143 6 -153 24 -145 252 l5 148 36 19 c62 31 200 64 335 79 4 1
5 -7 1 -16z m-10659 -19 c-4 -9 -9 -15 -11 -12 -3 3 -3 13 1 22 4 9 9 15 11
12 3 -3 3 -13 -1 -22z m7471 -59 c54 -14 101 -29 104 -33 4 -4 4 -73 0 -153
-9 -178 -18 -199 -85 -199 -23 0 -45 3 -49 6 -3 3 5 23 19 44 22 33 25 70 5
70 -3 0 -16 3 -28 6 -16 5 -23 2 -23 -8 0 -8 -14 -34 -31 -58 -28 -39 -32 -41
-47 -27 -21 22 -30 126 -11 138 8 5 37 9 66 9 54 0 87 19 81 48 -6 30 -34 37
-89 23 -48 -13 -53 -12 -66 5 -30 42 -12 64 55 64 20 0 44 5 52 10 13 8 12 11
-5 24 -15 11 -47 15 -122 16 l-103 0 0 34 c0 51 36 60 117 30 34 -12 106 -34
160 -49z m-7404 -43 c-14 -8 -36 -11 -50 -7 l-26 6 32 33 c17 17 31 38 32 46
0 8 9 -3 18 -25 l18 -40 -24 -13z m2300 63 c-2 -5 -18 -14 -35 -18 -18 -5 -39
-13 -45 -19 -9 -7 -13 -7 -13 0 0 18 53 53 74 50 12 -2 20 -7 19 -13z m7070 0
c-2 -5 -18 -14 -35 -18 -18 -5 -39 -13 -45 -19 -9 -7 -13 -7 -13 0 0 18 53 53
74 50 12 -2 20 -7 19 -13z m-8873 0 c0 -2 -9 -9 -20 -15 -22 -12 -44 -5 -35
11 6 9 55 13 55 4z m70 -4 c0 -5 -7 -14 -15 -21 -12 -10 -19 -10 -28 -1 -9 9
-9 14 3 21 19 12 40 13 40 1z m5109 -117 c1 -86 15 -166 37 -216 15 -33 21
-37 58 -40 l41 -3 -55 -18 c-58 -19 -270 -40 -282 -28 -12 10 -22 202 -14 254
7 44 9 47 36 47 28 0 29 -2 19 -27 -12 -33 1 -48 36 -39 20 5 32 19 46 54 11
26 29 67 42 91 20 42 22 43 28 20 4 -13 7 -56 8 -95z m-5889 86 c0 -13 -48
-36 -56 -27 -4 3 -4 13 -1 22 7 17 57 21 57 5z m727 -50 c27 -21 25 -22 -29
-34 -29 -7 -35 4 -22 38 8 21 21 20 51 -4z m1744 -11 c-13 -11 -27 -17 -30
-13 -7 7 28 34 43 34 6 -1 0 -10 -13 -21z m7070 1 c-13 -11 -28 -20 -35 -20
-6 1 0 10 13 20 13 11 28 20 35 20 6 -1 0 -10 -13 -20z m-5824 -6 c30 -10 68
-15 104 -12 54 4 58 3 64 -20 7 -30 -17 -69 -50 -82 -14 -5 -54 -12 -90 -16
-70 -7 -84 -16 -64 -40 10 -12 26 -14 86 -9 82 8 92 -1 41 -36 -18 -12 -48
-38 -66 -57 -28 -31 -36 -34 -68 -29 -20 4 -39 8 -42 11 -9 10 -21 92 -28 199
l-7 107 36 0 c20 0 58 -7 84 -16z m3693 -29 c0 -25 -29 -45 -66 -45 -24 0 -17
49 9 60 41 16 57 12 57 -15z m-6562 -18 c3 -14 -5 -17 -37 -17 -48 0 -51 4
-13 24 32 18 46 16 50 -7z m7838 -43 c-6 -14 -46 -20 -46 -6 0 4 7 18 16 31
15 21 18 22 26 7 5 -10 7 -24 4 -32z m-7069 2 c-4 -9 -13 -16 -21 -16 -13 0
-14 4 -4 25 12 28 35 19 25 -9z m856 9 c-5 -13 -23 -22 -23 -11 0 15 14 35 21
31 4 -3 6 -12 2 -20z m7077 0 c0 -8 -13 -21 -30 -30 -27 -14 -30 -14 -30 1 0
18 41 55 52 47 5 -2 8 -11 8 -18z m-9350 -4 c0 -11 -31 -24 -39 -16 -3 3 1 10
9 15 19 12 30 12 30 1z m1705 -38 c-9 -48 -11 -50 -34 -29 -20 18 -19 18 7 42
15 13 29 24 31 24 2 0 0 -17 -4 -37z m7065 -18 c-10 -26 -11 -27 -30 -10 -18
17 -18 17 8 40 31 27 39 15 22 -30z m-9000 26 c-5 -11 -10 -31 -10 -45 0 -13
-5 -37 -11 -53 -14 -39 -29 -13 -29 54 0 52 6 61 43 62 14 1 16 -3 7 -18z
m340 -16 c0 -10 -10 -15 -30 -15 -47 0 -35 27 13 29 9 1 17 -6 17 -14z m510 3
c70 -12 70 -12 81 -51 12 -45 -2 -91 -32 -107 -23 -13 -27 -13 -26 3 0 6 -1
25 -1 41 -2 28 -2 29 -52 22 -68 -9 -100 -22 -100 -41 0 -12 8 -14 40 -9 40 7
50 -2 28 -24 -12 -12 -116 -16 -155 -6 -22 6 -22 6 9 53 44 64 108 131 124
131 8 0 45 -5 84 -12z m6588 -68 c2 -25 -1 -56 -5 -68 l-8 -22 -38 25 c-28 20
-37 32 -37 55 0 50 9 61 49 58 35 -3 36 -4 39 -48z m-5798 21 c0 -9 -52 -51
-64 -51 -16 0 -3 38 17 48 28 14 47 15 47 3z m7070 -1 c0 -10 -92 -81 -97 -76
-2 2 0 16 3 33 4 22 14 32 37 40 43 14 57 15 57 3z m865 0 c-3 -5 -13 -10 -21
-10 -8 0 -12 5 -9 10 3 6 13 10 21 10 8 0 12 -4 9 -10z m3015 -35 c0 -8 -6
-15 -14 -15 -17 0 -28 14 -19 24 12 12 33 6 33 -9z m-8335 -15 c8 -13 -98 -65
-160 -78 -103 -22 -105 -22 -105 8 0 25 4 27 103 49 56 13 107 25 112 26 22 7
44 5 50 -5z m-3935 -19 c0 -13 -26 -32 -33 -24 -8 7 11 33 24 33 5 0 9 -4 9
-9z m3604 -6 c3 -8 3 -29 -1 -45 -5 -28 -9 -30 -49 -30 -24 0 -44 2 -44 5 0 9
72 85 80 85 4 0 10 -7 14 -15z m4778 -64 c-5 -14 -12 -17 -30 -10 l-23 9 23
30 c21 29 23 30 30 10 4 -11 4 -28 0 -39z m-7076 22 c-10 -10 -19 5 -10 18 6
11 8 11 12 0 2 -7 1 -15 -2 -18z m10964 18 c0 -14 -18 -23 -30 -16 -6 4 -8 11
-5 16 8 12 35 12 35 0z m75 -31 l29 -30 -32 0 c-29 0 -32 3 -32 30 0 17 1 30
3 30 2 0 16 -13 32 -30z"/>
<path d="M10165 7630 c-8 -37 -6 -40 41 -56 30 -10 36 -10 41 3 8 21 -8 44
-45 66 l-30 18 -7 -31z"/>
<path d="M10187 7309 c-10 -6 -25 -8 -33 -5 -11 4 -14 -5 -14 -43 0 -55 7 -67
29 -47 9 7 29 18 45 23 38 12 55 37 40 61 -13 21 -42 26 -67 11z"/>
<path d="M6342 7508 c-19 -19 -15 -32 21 -66 30 -29 35 -31 47 -18 13 17 7 61
-12 83 -13 16 -40 17 -56 1z"/>
<path d="M13758 7248 c-32 -11 -58 -24 -58 -29 0 -13 19 -11 97 7 37 8 80 13
95 10 32 -6 37 8 9 24 -29 15 -79 11 -143 -12z"/>
<path d="M17650 7247 c0 -13 7 -30 16 -38 14 -11 15 -9 12 21 -4 39 -28 54
-28 17z"/>
<path d="M6933 6730 c-34 -14 -28 -30 11 -30 44 0 66 9 66 26 0 16 -42 18 -77
4z"/>
</g>
</svg>
