<?xml version="1.0" standalone="no"?>
<!DOCTYPE svg PUBLIC "-//W3C//DTD SVG 20010904//EN"
 "http://www.w3.org/TR/2001/REC-SVG-20010904/DTD/svg10.dtd">
<svg version="1.0" xmlns="http://www.w3.org/2000/svg"
 width="2560.000000pt" height="1440.000000pt" viewBox="0 0 2560.000000 1440.000000"
 preserveAspectRatio="xMidYMid meet">

<g transform="translate(0.000000,1440.000000) scale(0.100000,-0.100000)"
fill="#000000" stroke="none">
<path d="M0 7200 l0 -7200 12800 0 12800 0 0 7200 0 7200 -12800 0 -12800 0 0
-7200z m10285 620 c40 0 42 -1 37 -26 -2 -14 3 -39 11 -57 9 -18 19 -49 22
-69 3 -21 15 -44 25 -51 19 -13 19 -14 -6 -38 -14 -13 -35 -41 -45 -61 -22
-43 -57 -56 -38 -14 9 18 8 31 -2 52 -13 26 -20 29 -65 32 -46 3 -51 1 -62
-23 -31 -67 -6 -105 60 -95 42 6 43 5 43 -19 0 -27 -24 -39 -85 -44 -24 -2
-25 -5 -25 -66 0 -49 4 -66 17 -74 13 -9 21 -7 35 5 10 9 30 19 45 23 30 8 54
31 59 57 3 12 8 15 18 9 11 -7 11 -17 1 -60 -16 -67 -7 -121 21 -121 33 0 77
37 85 73 l7 32 12 -45 c11 -43 13 -45 46 -45 19 1 40 -6 47 -15 38 -44 85
-190 61 -190 -5 0 -9 -12 -9 -27 0 -45 -18 -95 -51 -148 -22 -33 -34 -45 -37
-35 -10 32 -36 50 -71 51 -31 0 -33 2 -14 9 27 11 36 40 24 74 -9 22 -16 26
-51 26 -34 0 -41 4 -46 24 -3 14 -12 27 -19 30 -10 3 -12 16 -8 40 7 47 -8 63
-65 72 -30 5 -53 15 -64 29 -23 29 -67 45 -96 34 -16 -6 -22 -16 -22 -40 l0
-31 -64 56 c-35 31 -68 56 -73 56 -5 0 -18 9 -28 20 -10 11 -14 20 -10 20 4 0
0 9 -9 19 -17 19 -17 20 6 23 18 2 28 -6 48 -42 34 -61 60 -61 79 -1 12 37 12
48 1 65 -8 12 -21 48 -30 81 -15 57 -15 63 2 113 10 30 16 62 13 72 -8 24 -32
32 -55 20 -17 -9 -22 -5 -35 27 -31 73 -30 81 8 96 19 8 37 19 41 25 3 6 14 8
25 5 11 -3 24 3 32 14 34 45 90 64 168 57 24 -2 63 -4 86 -4z m-3542 -6 l37
-7 -2 -143 c-3 -158 -4 -159 -66 -153 -15 2 -32 1 -37 -2 -6 -4 -22 -9 -36
-12 -14 -4 -31 -18 -37 -32 -13 -29 -16 -111 -4 -118 4 -2 42 0 84 5 52 7 83
16 98 30 23 22 126 55 137 44 4 -4 10 -43 14 -87 6 -66 11 -82 31 -99 12 -11
33 -19 46 -17 23 2 23 6 26 104 2 64 8 108 16 118 8 9 30 15 59 15 27 0 63 8
86 20 48 24 45 25 46 -2 3 -82 -2 -109 -21 -128 -20 -20 -24 -32 -21 -58 1 -8
-7 -16 -18 -19 -11 -3 -23 -14 -26 -24 -11 -32 -65 -80 -85 -74 -10 3 -40 -3
-66 -13 -38 -14 -56 -17 -81 -9 -24 7 -47 5 -101 -12 -82 -25 -100 -41 -84
-76 7 -14 18 -25 26 -25 11 0 8 -7 -9 -25 -30 -29 -32 -51 -5 -65 15 -8 30 -8
56 0 51 17 52 6 2 -27 -50 -33 -64 -78 -29 -91 19 -7 19 -9 -12 -49 -18 -23
-35 -42 -38 -43 -8 0 -63 161 -62 180 2 23 -60 144 -75 148 -9 3 -11 -4 -7
-25 3 -15 2 -22 -1 -15 -3 6 -11 12 -18 12 -10 0 -10 12 -3 54 14 75 -3 100
-64 102 -24 1 -64 5 -89 9 -36 6 -49 4 -59 -9 -7 -9 -19 -16 -27 -16 -7 0 -17
-6 -21 -13 -6 -8 -28 -11 -72 -9 l-64 4 7 71 c12 135 15 144 55 169 20 13 55
30 78 36 91 27 55 107 -40 88 l-32 -6 33 20 c38 23 44 59 10 68 -21 5 -21 5 3
14 15 6 25 5 27 -2 2 -6 10 -17 18 -24 8 -8 14 -23 14 -33 0 -10 17 -35 37
-56 27 -29 42 -38 59 -34 23 4 24 1 24 -45 l0 -50 -34 21 c-46 29 -66 27 -66
-5 0 -27 72 -128 116 -163 33 -26 71 -27 81 -3 4 9 6 107 3 217 -4 151 -2 204
8 216 18 23 15 57 -7 64 -10 3 -22 16 -25 29 -3 13 -9 31 -12 40 -5 12 6 16
63 19 37 1 79 4 93 5 14 1 42 -1 63 -4z m-301 -27 c4 -7 8 -26 8 -43 0 -34
-19 -47 -94 -64 -41 -9 -45 0 -17 37 15 18 18 30 11 47 -12 33 7 49 50 41 19
-4 38 -12 42 -18z m468 -31 c0 -33 -4 -45 -17 -48 -15 -4 -18 2 -18 44 0 39 3
48 18 48 14 0 17 -9 17 -44z m1710 32 c0 -25 -39 -175 -59 -228 -26 -70 -76
-147 -130 -201 -33 -34 -41 -48 -39 -72 5 -46 26 -53 86 -27 43 18 58 33 87
79 58 93 51 87 72 69 26 -23 204 -117 281 -148 l65 -26 30 -75 c28 -72 29 -81
34 -281 l5 -206 -38 9 c-22 4 -81 9 -131 9 -77 0 -93 3 -93 16 0 9 20 24 48
36 52 23 62 33 62 65 0 32 -28 56 -58 48 -22 -5 -24 -4 -13 9 19 23 10 60 -16
64 -25 4 -29 12 -13 28 6 6 13 42 16 80 3 38 10 81 16 97 23 60 -25 69 -151
26 -30 -11 -64 -19 -77 -19 -30 0 -32 -12 -17 -89 20 -108 31 -99 -121 -97
-128 1 -135 0 -159 -22 -14 -13 -37 -50 -52 -83 -41 -92 -42 -83 -9 54 12 53
13 71 4 82 -17 20 -66 18 -115 -4 l-40 -17 -10 30 c-8 26 -15 31 -40 31 -24 0
-33 -6 -44 -32 -14 -31 -39 -49 -28 -20 3 8 1 20 -3 27 -6 10 -2 17 13 25 31
15 36 84 8 109 -16 14 -18 23 -11 37 6 10 10 22 9 26 -2 14 1 28 10 42 8 12
15 10 40 -12 37 -31 90 -43 119 -28 23 12 35 72 51 244 8 81 8 113 -1 127 -10
16 -8 27 11 62 14 24 30 50 37 58 7 8 26 30 41 48 15 18 46 39 68 47 53 19
255 21 255 3z m5145 -10 c-4 -13 -25 -80 -47 -150 -40 -126 -45 -178 -14 -178
17 0 42 28 54 60 l10 25 11 -29 c6 -16 21 -42 32 -58 17 -24 20 -36 12 -61 -7
-26 -16 -34 -56 -45 -42 -12 -47 -16 -47 -42 0 -36 12 -40 80 -24 30 7 80 13
111 14 73 0 93 19 59 55 -15 16 -35 25 -53 25 l-30 0 39 43 c32 36 41 41 51
30 15 -19 26 -183 16 -259 l-8 -61 -129 26 c-126 25 -129 27 -130 53 -3 58
-73 89 -120 53 -31 -23 -34 -19 -30 38 8 92 25 156 50 186 l24 29 -31 67 c-34
71 -35 120 -5 151 9 9 14 19 11 24 -9 15 28 35 79 41 28 3 55 7 59 8 5 0 5 -9
2 -21z m-4993 -15 c14 -16 39 -67 56 -114 16 -47 36 -99 45 -115 30 -56 48
-99 54 -128 l6 -30 -59 33 c-106 60 -205 133 -200 148 26 68 47 160 44 193 -4
49 15 54 54 13z m3070 -13 c12 -55 13 -312 1 -335 -13 -25 -27 -265 -16 -265
4 0 5 -39 2 -87 -3 -49 -2 -96 3 -106 6 -11 6 -75 1 -160 -4 -78 -8 -150 -7
-159 0 -15 -12 -17 -105 -17 -132 0 -141 3 -141 40 0 24 7 32 48 53 58 30 75
48 70 78 -4 32 -58 37 -98 8 -17 -12 -30 -17 -30 -11 0 6 19 20 43 32 23 12
50 28 60 37 23 20 22 53 -3 59 -19 5 -19 6 1 33 39 51 -6 87 -75 60 -28 -10
-27 -11 -41 72 -6 38 -42 75 -57 60 -4 -4 -10 -119 -12 -256 -2 -136 -7 -250
-10 -254 -4 -3 -16 4 -28 16 -21 21 -21 23 -8 119 19 139 16 216 -12 285 -12
32 -25 58 -28 58 -3 0 -4 31 -2 70 2 38 5 70 6 70 1 0 46 -11 100 -25 148 -38
264 -31 304 17 10 13 7 20 -23 47 -35 30 -38 31 -136 31 -164 0 -207 40 -101
95 62 32 74 55 46 86 -21 23 -45 24 -84 4 -17 -9 -30 -11 -30 -6 0 14 28 28
73 36 42 8 52 22 43 60 -4 17 -13 25 -29 25 -21 0 -22 3 -19 74 l4 74 58 7
c33 4 63 5 67 2 4 -2 17 -1 28 4 11 4 45 7 75 6 53 -2 54 -3 62 -37z m3818
-52 c-34 -154 -83 -254 -169 -339 -36 -36 -42 -47 -39 -78 3 -35 4 -36 43 -34
55 3 85 12 85 23 0 7 79 131 95 148 1 2 20 -9 41 -23 54 -36 272 -145 291
-145 9 0 14 -3 11 -6 -8 -8 22 -94 33 -94 4 0 13 -19 19 -42 7 -24 18 -65 25
-93 8 -28 15 -115 17 -202 3 -146 2 -151 -16 -141 -10 6 -67 12 -125 15 -58 2
-112 7 -120 9 -21 7 14 41 50 49 38 8 59 30 59 60 0 34 -27 58 -58 50 -22 -5
-24 -4 -13 9 19 23 10 60 -16 64 -25 4 -29 12 -13 28 6 6 13 42 16 80 3 38 10
81 16 97 23 60 -25 69 -151 26 -30 -11 -64 -19 -77 -19 -30 0 -33 -14 -18 -85
7 -33 13 -75 14 -92 0 -29 -3 -33 -27 -34 -16 -1 -37 -3 -48 -4 -11 -1 -59 -2
-107 -3 -78 -2 -90 -5 -119 -29 -17 -15 -45 -54 -60 -88 -31 -64 -35 -65 -20
-6 41 158 43 171 31 186 -17 20 -66 19 -115 -4 l-40 -17 -10 30 c-8 26 -15 31
-40 31 -24 0 -33 -6 -44 -32 -14 -31 -39 -49 -28 -20 3 8 1 20 -3 27 -6 10 -2
17 13 25 42 20 26 125 -18 125 -13 0 -12 8 6 43 29 56 38 60 71 32 34 -29 88
-41 116 -26 23 12 35 72 52 246 6 72 7 112 0 119 -6 6 -10 19 -10 31 0 27 95
143 128 157 15 7 74 14 132 18 58 4 117 7 132 8 l26 2 -18 -82z m1425 72 c3
-5 14 -10 24 -10 34 0 100 -61 139 -129 57 -99 59 -114 17 -134 -26 -13 -35
-23 -35 -42 0 -34 23 -41 72 -22 69 27 76 2 26 -96 -38 -75 -44 -150 -14 -172
24 -18 33 -12 52 36 l16 39 28 -20 c53 -38 114 -60 168 -60 28 0 52 1 52 3 10
63 9 125 -3 141 -20 27 -45 14 -52 -28 -10 -53 -35 -37 -30 19 4 33 0 49 -16
70 l-21 26 22 21 c12 11 28 34 34 50 l13 29 26 -61 c15 -33 34 -63 42 -66 22
-9 45 14 45 45 0 14 9 53 19 86 20 63 16 98 -13 103 -11 2 -22 -10 -35 -37
l-18 -41 -13 24 c-10 20 -10 31 5 69 16 41 16 47 1 76 -14 26 -22 31 -52 31
-31 0 -35 2 -24 15 20 24 109 45 180 42 70 -3 115 -24 126 -59 9 -31 2 -677
-9 -728 -5 -25 -11 -94 -13 -154 -4 -117 -19 -167 -55 -186 -25 -14 -352 -15
-377 -1 -13 7 -21 26 -26 62 -4 28 -4 54 -1 57 3 3 36 13 73 22 52 13 68 21
70 36 6 46 -37 59 -134 40 -61 -12 -66 13 -20 100 40 75 43 90 20 122 -21 30
-57 28 -141 -7 -74 -32 -89 -56 -59 -96 13 -18 18 -19 47 -8 18 7 33 12 34 10
1 -1 -8 -24 -20 -50 l-23 -48 -36 59 c-27 46 -35 66 -30 89 7 34 -15 57 -61
66 -40 7 -58 -8 -78 -66 -9 -26 -48 -95 -87 -153 -38 -58 -70 -116 -70 -128 0
-48 49 -61 94 -25 30 23 30 23 15 -37 -9 -35 -17 -45 -38 -50 -14 -3 -43 -10
-64 -15 -21 -6 -64 -7 -97 -3 -47 5 -64 12 -87 36 -26 27 -28 35 -34 146 -3
64 -2 121 3 127 4 5 8 28 8 51 0 41 1 42 58 67 54 24 199 58 304 72 56 7 71
26 66 83 -3 32 -7 37 -29 40 -26 3 -26 4 -21 65 9 101 7 134 -8 153 -8 9 -14
26 -12 36 5 26 -16 48 -45 48 -31 0 -39 24 -18 56 21 32 16 74 -10 88 -11 6
-22 12 -24 13 -2 1 2 16 9 32 12 31 13 31 117 39 12 1 25 -2 28 -8z m1580 -16
c-42 -32 -52 -34 -71 -13 -10 11 -24 17 -31 15 -7 -3 -13 -1 -13 4 0 6 30 10
68 10 62 -1 66 -2 47 -16z m388 -21 c-13 -94 -30 -121 -86 -132 -23 -5 -33
-13 -35 -29 -4 -29 14 -52 40 -52 15 0 19 -5 15 -20 -3 -13 4 -31 19 -49 28
-34 30 -53 9 -111 -19 -54 -19 -90 1 -118 20 -29 59 -28 88 3 l23 25 27 -35
c31 -41 28 -82 -7 -87 -34 -5 -35 -57 -2 -96 15 -18 25 -40 23 -49 -2 -10 -30
-31 -63 -48 -53 -26 -60 -34 -60 -59 0 -37 28 -48 77 -31 l37 12 6 -47 c6 -41
3 -54 -19 -89 -14 -22 -26 -45 -26 -51 0 -16 -63 -40 -103 -40 -26 0 -42 10
-80 48 l-47 48 35 34 c28 27 35 41 33 65 -4 41 -40 46 -78 10 l-27 -26 -6 30
c-4 18 -13 31 -22 31 -23 0 -18 15 10 30 29 15 34 60 10 80 -8 7 -15 20 -15
30 0 10 -6 23 -14 29 -8 7 -12 21 -9 31 3 11 0 27 -7 35 -9 11 -9 22 -1 46 9
26 8 37 -4 55 -11 17 -15 50 -15 116 l0 93 18 -30 c30 -48 47 -59 66 -40 9 9
14 21 10 26 -3 5 -9 37 -14 70 -10 69 -32 109 -59 109 -16 0 -23 14 -36 71 -9
39 -13 74 -9 78 4 3 9 0 11 -6 3 -7 12 -13 21 -13 19 0 82 59 82 77 0 10 23
13 94 13 l95 0 -6 -37z m127 20 c-5 -10 -19 -40 -30 -67 -11 -27 -22 -47 -25
-45 -2 3 3 33 13 67 12 47 21 62 34 62 14 0 16 -4 8 -17z m120 -6 c0 -30 27
-54 65 -59 l30 -3 -37 -39 c-46 -48 -47 -69 -6 -106 17 -16 30 -31 27 -33 -19
-14 -89 -38 -97 -33 -13 8 -53 -29 -76 -69 l-17 -30 6 35 c12 68 35 138 50
150 8 7 15 28 15 47 0 18 9 51 20 72 19 39 19 39 -1 65 l-20 26 20 0 c15 0 21
-6 21 -23z m-12210 -3 c0 -2 -7 -4 -15 -4 -8 0 -15 4 -15 10 0 5 7 7 15 4 8
-4 15 -8 15 -10z m8762 -81 c6 -24 14 -43 18 -43 8 0 30 -59 49 -130 7 -25 15
-53 18 -63 6 -18 5 -18 -28 -2 -31 16 -179 115 -179 119 0 2 11 36 25 76 14
40 25 83 25 95 0 12 3 25 7 28 13 13 54 -38 65 -80z m-1866 22 c5 -26 1 -43
-16 -70 -12 -19 -24 -35 -27 -35 -3 0 2 12 12 26 13 20 15 32 7 48 -6 11 -13
29 -16 39 -3 9 -13 17 -23 17 -15 0 -15 2 2 14 28 20 53 4 61 -39z m4538 -15
c-8 -36 -20 -83 -27 -105 l-12 -40 -5 70 c-5 67 -4 72 25 106 17 19 31 35 32
35 1 -1 -5 -30 -13 -66z m-6141 30 l47 -30 0 -112 c0 -107 -1 -110 -18 -95
-10 10 -31 17 -47 17 -27 0 -28 1 -10 20 26 28 13 69 -25 76 -26 6 -28 10 -24
34 7 32 -10 70 -31 70 -21 0 -19 38 3 43 38 10 59 5 105 -23z m-245 -7 c-2
-11 -15 -20 -33 -23 -39 -7 -53 -45 -37 -103 10 -36 9 -44 -6 -55 -35 -26 -50
-40 -54 -52 -2 -8 -12 -10 -26 -6 -20 7 -22 13 -22 94 0 48 -3 96 -6 108 -5
19 1 23 68 36 104 22 120 22 116 1z m4610 -45 l44 -46 -39 -12 c-21 -7 -42
-18 -48 -25 -7 -8 -11 5 -12 44 -3 46 4 102 10 89 1 -2 22 -24 45 -50z m-9560
0 c11 -18 23 -44 27 -58 7 -22 6 -23 -9 -11 -16 14 -88 11 -143 -5 -21 -6 -23
-3 -23 30 0 31 4 36 28 41 15 4 41 12 57 20 41 19 41 19 63 -17z m12338 -38
c-9 -64 -15 -80 -32 -80 -23 0 -36 37 -23 63 12 23 49 67 57 67 3 0 2 -23 -2
-50z m-9006 23 c-1 -5 -9 -24 -20 -43 l-18 -35 -11 28 c-15 38 -14 45 7 50 28
8 42 7 42 0z m8140 -47 c0 -40 -2 -43 -24 -39 -19 4 -28 -3 -50 -41 -29 -50
-32 -51 -70 -36 -17 6 -26 17 -26 32 l0 22 16 -22 c8 -12 21 -22 29 -22 17 0
35 31 35 59 0 24 56 91 76 91 10 0 14 -13 14 -44z m-12200 18 c0 -14 -3 -14
-15 -4 -8 7 -15 14 -15 16 0 2 7 4 15 4 8 0 15 -7 15 -16z m450 -28 c0 -22
-26 -43 -38 -31 -8 8 16 55 28 55 5 0 10 -11 10 -24z m9990 -32 c0 -11 -5 -14
-16 -10 -9 3 -21 6 -27 7 -7 0 -3 4 8 9 29 13 35 12 35 -6z m-7033 -161 c-32
-65 -35 -50 -28 117 l3 55 22 -65 23 -65 -20 -42z m2701 -148 l-3 -220 -32
-65 -31 -65 -1 40 c-1 42 16 382 26 525 l6 85 18 -40 c17 -36 19 -63 17 -260z
m2583 112 c-18 -18 -22 -2 -9 34 l13 34 3 -29 c2 -16 -1 -33 -7 -39z m1733 47
c3 -8 2 -12 -4 -9 -6 3 -10 10 -10 16 0 14 7 11 14 -7z m-164 -26 c0 -7 -33
-28 -44 -28 -8 0 -8 45 0 53 7 7 44 -14 44 -25z m-8620 5 c-1 -19 -19 -35 -30
-28 -10 6 -9 11 5 22 22 15 25 16 25 6z m4324 -85 c-3 -46 -14 -179 -25 -297
-10 -118 -19 -221 -19 -230 0 -14 -2 -14 -10 -1 -5 8 -10 31 -10 50 0 46 -25
82 -53 78 -18 -2 -23 -11 -25 -45 -3 -43 -3 -43 -43 -43 l-39 0 0 110 0 110
26 -10 c14 -6 38 -10 54 -10 39 0 53 29 52 107 -1 48 2 63 13 63 17 0 35 30
35 58 0 10 -14 38 -31 61 -17 24 -29 44 -27 46 4 3 90 32 101 34 4 0 5 -36 1
-81z m6762 45 c-11 -11 -17 4 -9 23 7 18 8 18 11 1 2 -10 1 -21 -2 -24z
m-1782 1 c3 -8 2 -12 -4 -9 -6 3 -10 10 -10 16 0 14 7 11 14 -7z m-574 -41 c0
-18 -39 -26 -56 -12 -13 10 -11 15 13 30 27 18 42 12 43 -18z m-4607 -14 c10
-18 16 -33 15 -34 -2 -1 -18 -7 -35 -13 -37 -12 -40 -6 -22 47 14 39 19 39 42
0z m4515 -86 c16 -30 16 -30 -19 -42 -47 -16 -49 -15 -49 38 0 40 4 53 23 66
21 15 22 14 28 -12 3 -16 11 -38 17 -50z m-3043 -113 l50 -19 -86 -1 c-94 0
-114 7 -72 26 39 17 51 17 108 -6z m-7255 -44 c0 -2 -7 -7 -16 -10 -8 -3 -12
-2 -9 4 6 10 25 14 25 6z m7532 -55 c9 -25 -5 -241 -19 -277 -3 -9 -21 -14
-49 -14 -47 0 -51 5 -29 34 24 32 18 64 -15 85 l-31 18 26 17 c34 23 31 71 -6
98 -23 18 -31 18 -67 7 -45 -13 -94 -4 -57 11 11 5 36 9 56 9 39 1 75 31 66
54 -5 12 4 12 55 -1 48 -12 62 -20 70 -41z m-7638 -57 c2 -38 7 -79 11 -91 6
-17 3 -22 -17 -25 -21 -3 -23 -8 -23 -52 0 -62 17 -75 75 -60 39 11 40 11 40
-15 0 -26 0 -26 -70 -23 -59 3 -70 7 -76 24 -11 35 7 161 27 187 22 28 25 79
5 87 -11 4 -11 10 -2 29 17 36 27 15 30 -61z m3606 45 c28 -31 31 -32 89 -26
60 7 61 6 61 -18 0 -32 -36 -50 -118 -59 -82 -9 -92 -14 -92 -40 0 -42 24 -61
74 -59 l46 1 -27 -33 c-16 -18 -40 -43 -55 -55 l-28 -21 -9 24 c-5 13 -15 86
-22 161 -11 118 -11 139 2 147 26 16 50 9 79 -22z m2180 -142 c12 -77 41 -143
67 -150 10 -3 -21 -5 -68 -6 -47 0 -107 -4 -132 -7 l-45 -6 -4 88 c-4 93 3
147 16 126 4 -7 21 -12 37 -12 40 0 76 37 91 96 l13 47 7 -54 c4 -30 12 -85
18 -122z m-1895 133 c-20 -22 -31 -20 -22 5 4 8 14 15 23 15 16 0 16 -2 -1
-20z m3404 -24 c-11 -9 -63 -17 -54 -8 6 6 19 12 30 14 20 4 32 1 24 -6z
m-5635 -86 c-10 -47 3 -79 34 -86 32 -8 52 -22 52 -38 0 -21 -45 -64 -75 -71
-24 -5 -28 -4 -17 6 21 22 14 88 -15 140 -26 48 -26 50 -7 64 28 21 34 18 28
-15z m7059 -13 c-6 -47 13 -77 46 -77 10 0 24 -7 32 -16 11 -13 10 -21 -5 -49
-33 -60 -53 -75 -101 -75 l-45 0 0 48 c0 44 1 46 13 22 8 -17 21 -25 37 -25
22 0 25 5 28 43 2 31 -4 55 -24 92 -27 49 -27 51 -8 65 29 22 32 19 27 -28z
m-7909 -18 c-3 -6 0 -15 7 -20 23 -14 15 -86 -11 -115 -36 -37 -47 -31 -46 27
1 37 -4 54 -16 63 -33 24 -22 45 25 49 23 2 43 4 45 5 2 1 0 -3 -4 -9z m3203
5 c-3 -3 -12 -4 -19 -1 -8 3 -5 6 6 6 11 1 17 -2 13 -5z m3437 -19 c-4 -11
-16 -35 -27 -54 -18 -30 -21 -32 -28 -15 -12 31 -10 82 4 87 6 3 22 5 34 4 18
-1 22 -6 17 -22z m-3494 5 c-14 -4 -34 -8 -45 -9 -16 -1 -17 1 -5 9 8 5 29 9
45 9 29 -1 29 -1 5 -9z m3330 -40 c0 -46 -5 -48 -37 -18 -34 31 -30 58 7 58
28 0 30 -2 30 -40z m-6709 -18 c-16 -5 -14 -57 3 -71 11 -9 20 -10 36 -1 20
11 21 10 11 -9 -10 -19 -18 -20 -74 -14 -34 3 -63 6 -64 7 -1 1 19 29 45 62
31 40 48 56 51 45 2 -8 -2 -17 -8 -19z m864 18 c3 -5 1 -10 -4 -10 -6 0 -11 5
-11 10 0 6 2 10 4 10 3 0 8 -4 11 -10z m7059 2 c2 -4 -4 -13 -14 -19 -15 -10
-17 -9 -13 8 5 20 18 25 27 11z m-4374 -47 c0 -11 -105 -56 -162 -70 -83 -19
-88 -19 -88 8 0 21 9 26 83 45 76 19 167 29 167 17z m-3930 -14 c0 -6 -4 -13
-10 -16 -5 -3 -10 1 -10 9 0 9 5 16 10 16 6 0 10 -4 10 -9z m1428 -50 c14 -9
13 -10 -10 -11 -24 0 -28 4 -28 28 1 23 2 24 11 10 5 -10 17 -22 27 -27z
m2139 -18 c-3 -2 -15 -3 -27 -1 l-22 3 24 30 23 30 3 -29 c2 -15 1 -30 -1 -33z
m8768 -3 c3 -5 1 -10 -4 -10 -6 0 -11 5 -11 10 0 6 2 10 4 10 3 0 8 -4 11 -10z"/>
<path d="M10180 7734 c-14 -35 -12 -70 3 -81 29 -21 88 -35 101 -23 31 25 26
53 -15 92 -47 45 -75 49 -89 12z"/>
<path d="M17682 7368 c-7 -7 -12 -29 -12 -50 0 -32 5 -41 26 -50 47 -22 65 31
32 95 -10 20 -29 22 -46 5z"/>
</g>
</svg>
